<?xml version="1.0" standalone="no"?>
<!DOCTYPE svg PUBLIC "-//W3C//DTD SVG 20010904//EN"
 "http://www.w3.org/TR/2001/REC-SVG-20010904/DTD/svg10.dtd">
<svg version="1.0" xmlns="http://www.w3.org/2000/svg"
 width="512.000000pt" height="512.000000pt" viewBox="0 0 512.000000 512.000000"
 preserveAspectRatio="xMidYMid meet">

<g transform="translate(0.000000,512.000000) scale(0.100000,-0.100000)"
fill="#000000" stroke="none">
<path d="M2178 4530 c-109 -19 -255 -80 -384 -162 l-62 -39 -47 33 c-43 30
-53 33 -123 33 -99 0 -170 -31 -248 -109 -78 -78 -109 -149 -109 -248 0 -70 3
-80 33 -123 l33 -47 -39 -62 c-170 -268 -213 -513 -117 -656 l31 -46 -47 -32
c-26 -17 -61 -50 -77 -74 -53 -77 -62 -122 -62 -303 0 -91 -2 -165 -5 -165 -4
0 -20 8 -38 17 -51 28 -188 24 -252 -7 -112 -55 -174 -152 -183 -287 l-5 -83
-134 0 c-129 0 -135 -1 -158 -25 l-25 -24 0 -271 0 -271 25 -24 c23 -24 29
-25 158 -25 l134 0 5 -84 c5 -70 11 -94 38 -145 83 -155 253 -209 427 -135 8
4 12 -45 15 -178 3 -175 5 -185 30 -234 40 -76 70 -107 140 -145 58 -31 70
-34 148 -34 78 0 90 3 148 34 70 38 100 69 140 145 l27 51 3 363 3 362 512 0
512 0 0 -147 c0 -146 0 -149 33 -217 27 -57 56 -92 181 -217 189 -189 230
-212 393 -217 76 -3 129 1 183 13 l76 17 39 -36 c52 -47 84 -62 158 -76 141
-25 333 32 539 162 l61 39 47 -33 c43 -30 53 -33 123 -33 65 0 86 5 137 29 77
38 153 114 191 191 24 51 29 72 29 137 0 70 -3 80 -33 123 l-33 47 39 62 c129
203 190 407 162 543 -15 73 -33 108 -76 154 l-34 35 16 79 c11 53 15 112 12
184 -3 94 -7 114 -36 175 -28 59 -56 93 -181 217 -124 125 -158 154 -217 181
-65 31 -77 33 -196 36 l-126 4 -30 37 c-16 20 -58 52 -93 71 -58 32 -71 34
-149 35 -100 0 -159 -24 -225 -90 -64 -64 -88 -124 -93 -235 l-4 -95 -44 -33
c-24 -17 -47 -32 -51 -32 -5 0 -89 81 -188 180 -138 138 -178 183 -170 194
242 337 344 590 333 831 -7 158 -31 201 -217 386 -167 168 -223 203 -347 218
-70 8 -197 -1 -267 -20 -36 -10 -41 -8 -77 25 -83 74 -180 98 -312 76z m-586
-295 c4 -5 -206 -220 -222 -228 -3 -1 -6 8 -8 21 -9 60 56 154 130 191 41 20
88 27 100 16z m1326 -1329 l374 -373 -112 -113 -113 -112 -369 368 c-203 203
-371 378 -374 390 -7 25 17 86 51 130 26 34 115 84 149 84 14 0 149 -128 394
-374z m-1588 50 c37 -8 90 -68 101 -112 12 -52 11 -1937 -1 -1989 -11 -50 -76
-114 -117 -117 -85 -4 -131 16 -166 72 l-22 35 0 1005 0 1005 22 35 c24 39 53
60 98 71 30 7 35 6 85 -5z m2549 4 c9 0 26 -7 37 -14 18 -14 17 -15 -16 -27
-19 -7 -77 -34 -127 -59 -93 -47 -93 -48 -86 -21 10 43 32 80 58 97 29 19 84
34 103 28 8 -2 21 -4 31 -4z m-1096 -598 c97 -97 177 -181 177 -185 0 -4 -306
-7 -680 -7 l-680 0 0 29 0 28 53 -14 c37 -10 86 -13 167 -10 145 6 250 36 416
117 110 54 325 187 339 210 3 6 12 10 18 10 7 0 92 -80 190 -178z m-1933 34
c37 -8 90 -68 101 -112 11 -51 11 -818 -1 -869 -11 -50 -76 -114 -117 -117
-85 -4 -131 16 -166 72 -22 35 -22 40 -22 480 0 441 0 445 22 480 24 39 53 60
98 71 30 7 35 6 85 -5z m-370 -546 l0 -160 -80 0 -80 0 0 160 0 160 80 0 80 0
0 -160z m2360 155 c0 -3 -13 -26 -30 -53 -16 -27 -52 -97 -81 -155 l-51 -107
-539 0 -539 0 0 160 0 160 620 0 c341 0 620 -2 620 -5z m1586 -607 l75 -72
-38 -19 c-48 -25 -145 -122 -170 -170 l-19 -38 -72 75 c-40 40 -72 81 -72 90
0 25 28 86 55 122 25 33 115 84 148 84 11 0 53 -32 93 -72z m227 -239 c16 -25
-17 -101 -64 -148 -48 -47 -123 -80 -148 -64 -27 17 -19 85 15 134 56 82 167
126 197 78z"/>
</g>
</svg>
